<svg width="776" height="442" viewBox="0 0 776 442" fill="none" xmlns="http://www.w3.org/2000/svg">
<rect width="776" height="442" fill="#5429CC"/>
<path d="M280.711 207.292C280.711 202.353 281.681 197.972 283.621 194.15C285.62 190.328 288.325 187.388 291.736 185.33C295.146 183.272 298.939 182.243 303.113 182.243C306.289 182.243 309.317 182.949 312.198 184.36C315.079 185.713 317.372 187.535 319.078 189.829V166.632H331.602V231.9H319.078V224.668C317.549 227.078 315.403 229.019 312.639 230.489C309.875 231.959 306.671 232.694 303.025 232.694C298.909 232.694 295.146 231.635 291.736 229.519C288.325 227.402 285.62 224.432 283.621 220.61C281.681 216.73 280.711 212.29 280.711 207.292ZM319.166 207.469C319.166 204.47 318.578 201.912 317.402 199.795C316.226 197.62 314.638 195.973 312.639 194.856C310.64 193.68 308.494 193.092 306.2 193.092C303.907 193.092 301.79 193.651 299.85 194.768C297.91 195.885 296.322 197.531 295.087 199.707C293.911 201.824 293.323 204.352 293.323 207.292C293.323 210.232 293.911 212.819 295.087 215.054C296.322 217.229 297.91 218.905 299.85 220.081C301.849 221.257 303.966 221.845 306.2 221.845C308.494 221.845 310.64 221.287 312.639 220.169C314.638 218.993 316.226 217.347 317.402 215.23C318.578 213.055 319.166 210.467 319.166 207.469Z" fill="white"/>
<path d="M358.039 193.18V216.818C358.039 218.464 358.421 219.67 359.185 220.434C360.008 221.14 361.361 221.492 363.242 221.492H368.975V231.9H361.214C350.806 231.9 345.602 226.843 345.602 216.73V193.18H339.781V183.037H345.602V170.954H358.039V183.037H368.975V193.18H358.039Z" fill="white"/>
<path d="M459.555 182.332C465.552 182.332 470.374 184.184 474.019 187.888C477.724 191.534 479.576 196.649 479.576 203.235V231.9H467.228V204.911C467.228 201.089 466.258 198.178 464.317 196.179C462.377 194.121 459.731 193.092 456.379 193.092C453.028 193.092 450.352 194.121 448.353 196.179C446.413 198.178 445.443 201.089 445.443 204.911V231.9H433.095V204.911C433.095 201.089 432.124 198.178 430.184 196.179C428.244 194.121 425.598 193.092 422.246 193.092C418.836 193.092 416.131 194.121 414.132 196.179C412.191 198.178 411.221 201.089 411.221 204.911V231.9H398.873V183.037H411.221V188.947C412.809 186.889 414.837 185.272 417.307 184.096C419.835 182.92 422.599 182.332 425.598 182.332C429.42 182.332 432.83 183.155 435.829 184.801C438.828 186.389 441.15 188.682 442.797 191.681C444.384 188.858 446.677 186.595 449.676 184.889C452.734 183.184 456.027 182.332 459.555 182.332Z" fill="white"/>
<path d="M512.991 232.694C508.287 232.694 504.053 231.665 500.29 229.607C496.527 227.49 493.557 224.521 491.382 220.699C489.265 216.877 488.207 212.467 488.207 207.469C488.207 202.471 489.294 198.061 491.47 194.239C493.704 190.417 496.733 187.477 500.555 185.419C504.377 183.302 508.64 182.243 513.344 182.243C518.048 182.243 522.311 183.302 526.133 185.419C529.955 187.477 532.953 190.417 535.129 194.239C537.363 198.061 538.481 202.471 538.481 207.469C538.481 212.467 537.334 216.877 535.041 220.699C532.806 224.521 529.749 227.49 525.868 229.607C522.046 231.665 517.754 232.694 512.991 232.694ZM512.991 221.933C515.225 221.933 517.313 221.404 519.253 220.346C521.252 219.229 522.84 217.582 524.016 215.407C525.192 213.231 525.78 210.585 525.78 207.469C525.78 202.823 524.545 199.266 522.075 196.796C519.665 194.268 516.695 193.004 513.167 193.004C509.639 193.004 506.67 194.268 504.259 196.796C501.907 199.266 500.731 202.823 500.731 207.469C500.731 212.114 501.878 215.701 504.171 218.229C506.523 220.699 509.463 221.933 512.991 221.933Z" fill="white"/>
<path d="M574.616 182.332C580.437 182.332 585.141 184.184 588.728 187.888C592.314 191.534 594.108 196.649 594.108 203.235V231.9H581.76V204.911C581.76 201.03 580.79 198.061 578.849 196.003C576.909 193.886 574.263 192.827 570.911 192.827C567.501 192.827 564.796 193.886 562.797 196.003C560.856 198.061 559.886 201.03 559.886 204.911V231.9H547.538V183.037H559.886V189.123C561.533 187.006 563.62 185.36 566.148 184.184C568.736 182.949 571.558 182.332 574.616 182.332Z" fill="white"/>
<path d="M651.273 206.41C651.273 208.174 651.156 209.762 650.92 211.173H615.199C615.493 214.701 616.728 217.465 618.904 219.464C621.079 221.463 623.755 222.463 626.93 222.463C631.516 222.463 634.78 220.493 636.72 216.553H650.038C648.627 221.257 645.922 225.138 641.924 228.196C637.926 231.194 633.016 232.694 627.195 232.694C622.491 232.694 618.257 231.665 614.494 229.607C610.789 227.49 607.879 224.521 605.762 220.699C603.704 216.877 602.675 212.467 602.675 207.469C602.675 202.412 603.704 197.972 605.762 194.15C607.82 190.328 610.701 187.388 614.406 185.33C618.11 183.272 622.373 182.243 627.195 182.243C631.84 182.243 635.985 183.243 639.631 185.242C643.335 187.241 646.187 190.093 648.186 193.798C650.244 197.443 651.273 201.647 651.273 206.41ZM638.484 202.882C638.425 199.707 637.279 197.179 635.044 195.297C632.81 193.357 630.076 192.386 626.842 192.386C623.784 192.386 621.197 193.327 619.08 195.209C617.022 197.032 615.758 199.589 615.288 202.882H638.484Z" fill="white"/>
<path d="M707.032 183.037L676.78 255.008H663.638L674.222 230.665L654.641 183.037H668.489L681.101 217.171L693.89 183.037H707.032Z" fill="white"/>
<path d="M197.473 150.527C183.59 136.645 165.133 129 145.5 129C125.867 129 107.41 136.645 93.5275 150.527C79.6451 164.41 72 182.867 72 202.5C72 222.133 79.6454 240.59 93.5275 254.473C107.409 268.355 125.867 276 145.5 276C165.133 276 183.59 268.355 197.473 254.473C211.355 240.59 219 222.133 219 202.5C219 182.867 211.355 164.41 197.473 150.527Z" fill="#33CC95"/>
<path d="M147.6 158.4V250.8" stroke="white" stroke-width="2" stroke-linecap="round" stroke-linejoin="round"/>
<path d="M168.6 175.2H137.1C133.201 175.2 129.462 176.749 126.706 179.506C123.949 182.262 122.4 186.001 122.4 189.9C122.4 193.799 123.949 197.538 126.706 200.294C129.462 203.051 133.201 204.6 137.1 204.6H158.1C161.999 204.6 165.738 206.149 168.494 208.906C171.251 211.662 172.8 215.401 172.8 219.3C172.8 223.199 171.251 226.938 168.494 229.694C165.738 232.451 161.999 234 158.1 234H122.4" stroke="white" stroke-width="2" stroke-linecap="round" stroke-linejoin="round"/>
</svg>
